HIERARCHY
ROOT Hips
{
  OFFSET 0.0000 0.0000 0.0000
  CHANNELS 6 Xposition Yposition Zposition Zrotation Xrotation Yrotation
  JOINT LeftHip
  {
    OFFSET 3.4300 0.0000 0.0000
    CHANNELS 3 Zrotation Xrotation Yrotation
    JOINT LeftKnee
    {
      OFFSET 0.0000 -18.4700 0.0000
      CHANNELS 3 Zrotation Xrotation Yrotation
      JOINT LeftAnkle
      {
        OFFSET 0.0000 -17.9500 0.0000
        CHANNELS 3 Zrotation Xrotation Yrotation
        End Site
        {
            OFFSET -0.0000 -3.1200 0.0000
        }
      }
    }
  }
  JOINT RightHip
  {
    OFFSET -3.4300 0.0000 0.0000
    CHANNELS 3 Zrotation Xrotation Yrotation
    JOINT RightKnee
    {
      OFFSET 0.0000 -18.4700 -0.0000
      CHANNELS 3 Zrotation Xrotation Yrotation
      JOINT RightAnkle
      {
        OFFSET 0.0000 -17.9500 0.0000
        CHANNELS 3 Zrotation Xrotation Yrotation
        End Site
        {
            OFFSET 0.0000 -3.1200 0.0000
        }
      }
    }
  }
  JOINT Chest
  {
    OFFSET -0.0000 4.5700 0.0000
    CHANNELS 3 Zrotation Xrotation Yrotation
    JOINT Chest2
    {
      OFFSET 0.0000 6.5700 0.0000
      CHANNELS 3 Zrotation Xrotation Yrotation
      JOINT LeftCollar
      {
        OFFSET 1.0600 4.1900 1.7600
        CHANNELS 3 Zrotation Xrotation Yrotation
        JOINT LeftShoulder
        {
          OFFSET 5.8100 0.0000 0.0000
          CHANNELS 3 Zrotation Xrotation Yrotation
          JOINT LeftElbow
          {
            OFFSET 0.0000 -12.0800 -0.0000
            CHANNELS 3 Zrotation Xrotation Yrotation
            JOINT LeftWrist
            {
              OFFSET -0.0000 -9.8200 0.0000
              CHANNELS 3 Zrotation Xrotation Yrotation
              End Site
              {
                  OFFSET 0.0000 -7.3700 0.0000
              }
            }
          }
        }
      }
      JOINT RightCollar
      {
        OFFSET -1.0600 4.1900 1.7600
        CHANNELS 3 Zrotation Xrotation Yrotation
        JOINT RightShoulder
        {
          OFFSET -6.0600 -0.0000 0.0000
          CHANNELS 3 Zrotation Xrotation Yrotation
          JOINT RightElbow
          {
            OFFSET -0.0000 -11.0800 -0.0000
            CHANNELS 3 Zrotation Xrotation Yrotation
            JOINT RightWrist
            {
              OFFSET 0.0000 -9.8200 0.0000
              CHANNELS 3 Zrotation Xrotation Yrotation
              End Site
              {
                  OFFSET -0.0000 -7.1400 0.0000
              }
            }
          }
        }
      }
    }
    JOINT Neck
    {
      OFFSET 0.0000 10.6200 0.0000
      CHANNELS 3 Zrotation Xrotation Yrotation
      JOINT Head
      {
        OFFSET 0.0000 5.1900 0.0000
        CHANNELS 3 Zrotation Xrotation Yrotation
        End Site
        {
            OFFSET 0.0000 4.1400 0.0000
        }
      }
    }
  }
}
MOTION
Frames:	32
Frame Time:	0.033333
45.1261 41.6193 0.1593 -2.55 -4.82 -16.27 7.08 -4.90 1.08 -2.03 15.98 7.02 -4.72 -3.29 -0.10 -10.07 5.49 -20.86 2.47 7.37 -25.09 4.97 0.84 0.05 -2.33 16.76 -3.16 0.00 0.00 0.00 4.03 -0.14 6.35 -15.84 -47.99 -72.80 -102.01 -75.35 -115.95 15.03 -3.90 0.74 7.44 0.41 -0.79 -43.30 -29.41 -51.55 9.99 -65.35 38.75 -37.12 3.99 0.76 6.54 11.43 -23.87 5.11 -14.76 -22.61 
45.1261 41.6208 0.1590 -2.55 -4.82 -16.27 7.08 -4.90 1.08 -2.03 15.98 7.02 -4.72 -3.29 -0.10 -10.08 5.48 -20.86 2.47 7.39 -25.09 4.97 0.84 0.05 -2.33 16.76 -3.16 0.00 0.00 0.00 4.02 -0.14 6.34 -15.78 -48.02 -72.70 -101.94 -75.37 -115.87 14.93 -3.87 0.73 7.46 0.41 -0.79 -43.30 -29.40 -51.59 9.96 -65.36 38.75 -37.06 3.99 0.76 6.48 11.40 -23.84 5.16 -14.72 -22.61 
45.1258 41.6236 0.1630 -2.54 -4.81 -16.27 7.08 -4.90 1.08 -2.03 15.97 7.03 -4.71 -3.27 -0.11 -10.08 5.47 -20.86 2.48 7.39 -25.09 4.97 0.84 0.05 -2.35 16.74 -3.16 0.00 0.00 0.00 4.06 -0.14 6.38 -15.81 -48.11 -72.38 -100.73 -75.69 -114.79 13.67 -3.50 0.63 7.48 0.41 -0.79 -43.28 -29.31 -51.65 9.92 -65.40 38.67 -36.89 3.95 0.74 6.54 11.40 -23.85 5.13 -14.76 -22.59 
45.1261 41.6285 0.1627 -2.54 -4.81 -16.28 7.07 -4.93 1.08 -2.03 15.99 7.02 -4.70 -3.27 -0.11 -10.08 5.46 -20.86 2.47 7.39 -25.08 4.97 0.85 0.05 -2.36 16.73 -3.16 0.00 0.00 0.00 4.08 -0.14 6.40 -15.77 -48.16 -72.00 -100.22 -76.21 -114.90 11.35 -2.84 0.45 7.48 0.41 -0.81 -43.24 -29.23 -51.66 9.98 -65.45 38.66 -36.70 3.90 0.72 6.56 11.33 -23.84 5.09 -14.72 -22.57 
45.1309 41.6344 0.1628 -2.53 -4.81 -16.28 7.05 -5.00 1.06 -2.04 16.06 7.04 -4.68 -3.29 -0.11 -10.10 5.46 -20.86 2.49 7.38 -25.09 4.96 0.87 0.05 -2.37 16.71 -3.18 0.00 0.00 0.00 4.07 -0.14 6.39 -15.78 -48.19 -72.04 -101.63 -76.22 -116.68 10.85 -2.22 0.38 7.52 0.41 -0.81 -43.24 -29.11 -51.72 10.01 -65.63 38.66 -36.30 3.94 0.72 6.56 11.34 -23.83 5.09 -14.73 -22.56 
45.1306 41.6377 0.1672 -2.52 -4.81 -16.28 7.04 -4.99 1.05 -2.05 16.04 7.04 -4.66 -3.29 -0.11 -10.10 5.47 -20.86 2.49 7.33 -25.09 4.95 0.90 0.05 -2.38 16.70 -3.18 0.00 0.00 0.00 4.13 -0.14 6.45 -16.08 -48.22 -72.40 -101.97 -76.13 -117.14 10.93 -1.80 0.34 7.44 0.40 -0.85 -43.16 -29.05 -51.82 10.08 -65.77 38.70 -35.85 3.92 0.71 6.57 11.36 -23.82 5.09 -14.76 -22.55 
45.1355 41.6355 0.1655 -2.52 -4.80 -16.28 7.03 -4.97 1.04 -2.03 16.00 7.06 -4.67 -3.26 -0.11 -10.11 5.46 -20.86 2.49 7.35 -25.08 4.95 0.90 0.05 -2.38 16.69 -3.19 0.00 0.00 0.00 4.21 -0.14 6.52 -16.34 -48.29 -72.74 -101.32 -76.19 -116.45 11.01 -1.79 0.34 7.43 0.40 -0.86 -43.15 -28.96 -51.84 10.18 -65.89 38.79 -35.63 3.90 0.70 6.68 11.38 -23.85 5.01 -14.83 -22.52 
45.1405 41.6324 0.1624 -2.51 -4.80 -16.28 7.00 -4.98 1.00 -2.00 16.03 7.10 -4.69 -3.28 -0.10 -10.12 5.46 -20.87 2.46 7.33 -25.07 4.96 0.92 0.04 -2.39 16.68 -3.20 0.00 0.00 0.00 4.23 -0.14 6.55 -16.41 -48.37 -72.81 -101.25 -76.23 -116.33 10.93 -1.76 0.33 7.38 0.39 -0.89 -43.07 -28.89 -51.84 10.25 -66.02 38.88 -35.48 3.86 0.68 6.63 11.39 -23.82 5.06 -14.83 -22.52 
45.1400 41.6302 0.1664 -2.50 -4.81 -16.29 6.98 -4.92 1.00 -1.96 15.96 7.11 -4.71 -3.25 -0.10 -10.11 5.48 -20.85 2.43 7.29 -25.07 4.97 0.94 0.04 -2.41 16.66 -3.20 0.00 0.00 0.00 4.23 -0.14 6.54 -16.26 -48.38 -72.67 -101.79 -76.24 -116.87 10.83 -1.71 0.33 7.33 0.39 -0.92 -43.00 -28.83 -51.87 10.37 -66.18 39.09 -35.32 3.85 0.68 6.65 11.39 -23.82 5.05 -14.85 -22.51 
45.1452 41.6308 0.1616 -2.50 -4.81 -16.29 6.96 -4.91 0.98 -1.96 15.94 7.14 -4.71 -3.24 -0.10 -10.12 5.47 -20.85 2.43 7.28 -25.07 4.95 0.95 0.04 -2.41 16.65 -3.22 0.00 0.00 0.00 4.27 -0.14 6.58 -16.21 -48.35 -72.63 -102.03 -76.25 -117.11 10.81 -1.73 0.33 7.34 0.39 -0.92 -43.05 -28.78 -51.88 10.42 -66.24 39.20 -35.26 3.80 0.66 6.67 11.28 -23.82 5.00 -14.78 -22.50 
45.1498 41.6301 0.1614 -2.50 -4.81 -16.29 6.95 -4.91 0.96 -1.97 15.92 7.16 -4.71 -3.23 -0.10 -10.13 5.48 -20.86 2.45 7.27 -25.07 4.95 0.97 0.04 -2.40 16.64 -3.23 0.00 0.00 0.00 4.21 -0.14 6.53 -16.10 -48.37 -72.56 -102.06 -76.28 -117.12 10.76 -1.74 0.33 7.36 0.39 -0.92 -43.13 -28.76 -51.92 10.37 -66.25 39.15 -35.18 3.74 0.64 6.68 11.33 -23.81 5.00 -14.84 -22.49 
45.1487 41.6284 0.1570 -2.49 -4.81 -16.31 6.94 -4.89 0.96 -1.94 15.91 7.17 -4.73 -3.23 -0.10 -10.11 5.48 -20.85 2.39 7.24 -25.06 4.96 0.99 0.04 -2.41 16.63 -3.22 0.00 0.00 0.00 4.16 -0.14 6.49 -16.02 -48.41 -72.56 -102.26 -76.29 -117.31 10.73 -1.68 0.32 7.37 0.39 -0.92 -43.19 -28.73 -51.92 10.35 -66.26 39.12 -35.17 3.74 0.64 6.75 11.37 -23.83 4.96 -14.92 -22.48 
45.1531 41.6237 0.1519 -2.50 -4.81 -16.31 6.94 -4.87 0.95 -1.91 15.86 7.19 -4.76 -3.20 -0.09 -10.12 5.45 -20.86 2.40 7.29 -25.04 4.97 0.98 0.03 -2.41 16.62 -3.23 0.00 0.00 0.00 4.13 -0.14 6.47 -15.96 -48.42 -72.51 -102.61 -76.30 -117.65 10.61 -1.64 0.31 7.38 0.39 -0.92 -43.20 -28.71 -51.93 10.43 -66.34 39.21 -35.12 3.81 0.66 6.72 11.40 -23.82 5.00 -14.94 -22.47 
45.1572 41.6184 0.1467 -2.50 -4.80 -16.32 6.94 -4.77 0.95 -1.92 15.69 7.22 -4.75 -3.10 -0.09 -10.13 5.43 -20.84 2.41 7.29 -25.05 4.96 0.99 0.04 -2.39 16.60 -3.25 0.00 0.00 0.00 4.15 -0.14 6.48 -15.95 -48.41 -72.46 -102.82 -76.33 -117.83 10.46 -1.70 0.31 7.34 0.39 -0.93 -43.17 -28.74 -51.89 10.43 -66.35 39.24 -35.09 3.83 0.67 6.62 11.40 -23.77 5.06 -14.92 -22.48 
45.1547 41.6184 0.1463 -2.50 -4.80 -16.36 6.94 -4.74 0.98 -1.93 15.63 7.23 -4.75 -3.07 -0.09 -10.12 5.42 -20.82 2.39 7.29 -25.03 4.96 0.98 0.03 -2.39 16.59 -3.23 0.00 0.00 0.00 4.09 -0.14 6.43 -15.89 -48.43 -72.52 -102.91 -76.36 -117.90 10.45 -1.70 0.31 7.38 0.39 -0.91 -43.27 -28.77 -51.86 10.36 -66.30 39.15 -35.09 3.83 0.66 6.70 11.49 -23.79 5.02 -15.03 -22.45 
45.1612 41.6186 0.1390 -2.49 -4.81 -16.38 6.94 -4.79 0.98 -1.94 15.70 7.24 -4.74 -3.10 -0.09 -10.13 5.40 -20.82 2.38 7.32 -25.00 4.97 0.98 0.03 -2.37 16.57 -3.24 0.00 0.00 0.00 4.02 -0.14 6.38 -15.85 -48.47 -72.63 -102.74 -76.38 -117.68 10.53 -1.73 0.32 7.46 0.40 -0.87 -43.40 -28.82 -51.83 10.26 -66.24 39.09 -35.09 3.83 0.66 6.68 11.59 -23.76 5.07 -15.12 -22.44 
45.1677 41.6145 0.1275 -2.50 -4.81 -16.39 6.94 -4.79 0.98 -1.95 15.67 7.26 -4.73 -3.08 -0.09 -10.13 5.38 -20.82 2.36 7.33 -24.97 4.96 1.00 0.03 -2.35 16.55 -3.27 0.00 0.00 0.00 3.90 -0.14 6.30 -15.68 -48.51 -72.60 -102.70 -76.40 -117.59 10.57 -1.78 0.32 7.45 0.40 -0.87 -43.39 -28.88 -51.77 10.23 -66.21 39.11 -35.10 3.84 0.67 6.57 11.69 -23.72 5.17 -15.18 -22.44 
45.1684 41.6164 0.1221 -2.50 -4.81 -16.43 6.95 -4.77 1.01 -1.97 15.62 7.27 -4.72 -3.06 -0.09 -10.13 5.37 -20.82 2.37 7.32 -24.95 4.95 1.00 0.03 -2.34 16.53 -3.28 0.00 0.00 0.00 3.88 -0.14 6.28 -15.62 -48.49 -72.61 -102.98 -76.39 -117.89 10.60 -1.72 0.32 7.53 0.40 -0.84 -43.49 -28.91 -51.75 10.19 -66.21 39.10 -35.07 3.87 0.68 6.59 11.78 -23.71 5.19 -15.26 -22.43 
45.1746 41.6132 0.1133 -2.51 -4.81 -16.45 6.94 -4.68 1.04 -1.93 15.46 7.27 -4.74 -2.96 -0.09 -10.15 5.33 -20.82 2.40 7.36 -24.93 4.94 1.00 0.03 -2.32 16.52 -3.28 0.00 0.00 0.00 3.85 -0.14 6.25 -15.50 -48.49 -72.52 -103.25 -76.36 -118.15 10.61 -1.70 0.32 7.50 0.40 -0.85 -43.43 -28.93 -51.67 10.25 -66.24 39.19 -35.08 3.90 0.69 6.54 11.79 -23.67 5.24 -15.25 -22.42 
45.1741 41.6124 0.1109 -2.51 -4.79 -16.50 6.96 -4.66 1.08 -1.95 15.43 7.28 -4.74 -2.96 -0.09 -10.14 5.30 -20.80 2.38 7.35 -24.93 4.94 1.01 0.03 -2.32 16.50 -3.24 0.00 0.00 0.00 3.84 -0.14 6.25 -15.55 -48.53 -72.58 -102.91 -76.39 -117.76 10.63 -1.75 0.32 7.52 0.40 -0.83 -43.49 -28.95 -51.64 10.14 -66.19 39.09 -35.08 3.89 0.68 6.60 11.85 -23.69 5.21 -15.32 -22.41 
45.1765 41.6153 0.0978 -2.51 -4.78 -16.56 6.99 -4.71 1.13 -2.00 15.43 7.30 -4.71 -2.95 -0.09 -10.11 5.28 -20.77 2.33 7.28 -24.89 4.93 1.07 0.03 -2.33 16.49 -3.17 0.00 0.00 0.00 3.82 -0.14 6.23 -15.54 -48.55 -72.58 -102.70 -76.40 -117.55 10.64 -1.80 0.33 7.54 0.40 -0.84 -43.51 -28.93 -51.54 10.20 -66.21 39.13 -35.10 3.93 0.70 6.62 11.91 -23.70 5.22 -15.39 -22.41 
45.1807 41.6167 0.0762 -2.52 -4.78 -16.60 7.02 -4.75 1.17 -2.02 15.48 7.31 -4.70 -2.96 -0.09 -10.08 5.24 -20.79 2.31 7.28 -24.83 4.91 1.09 0.03 -2.33 16.49 -3.13 0.00 0.00 0.00 3.83 -0.14 6.24 -15.52 -48.55 -72.54 -102.79 -76.39 -117.63 10.66 -1.79 0.33 7.54 0.40 -0.84 -43.47 -28.95 -51.28 10.27 -66.23 39.24 -35.12 4.01 0.72 6.65 11.83 -23.70 5.17 -15.34 -22.40 
45.1816 41.6199 0.0560 -2.55 -4.76 -16.66 7.06 -4.83 1.18 -2.03 15.54 7.35 -4.71 -2.97 -0.09 -10.01 5.18 -20.82 2.21 7.27 -24.74 4.93 1.13 0.02 -2.33 16.49 -3.06 0.00 0.00 0.00 3.88 -0.14 6.28 -15.47 -48.53 -72.25 -102.86 -76.34 -117.70 10.63 -1.84 0.33 7.48 0.40 -0.86 -43.25 -29.07 -50.64 10.29 -66.23 39.45 -35.15 4.19 0.78 6.62 11.88 -23.68 5.23 -15.38 -22.39 
45.1905 41.6239 0.0292 -2.59 -4.72 -16.67 7.09 -4.98 1.13 -2.00 15.67 7.40 -4.71 -3.00 -0.09 -9.94 5.10 -20.96 2.18 7.26 -24.60 4.91 1.17 0.01 -2.31 16.51 -3.03 0.00 0.00 0.00 3.97 -0.14 6.30 -14.73 -48.32 -70.45 -103.98 -75.68 -119.06 11.19 -1.42 0.31 6.78 0.35 -1.08 -42.25 -29.45 -49.64 10.64 -66.15 39.95 -35.07 4.15 0.77 6.64 11.80 -23.68 5.22 -15.32 -22.38 
45.2068 41.6185 -0.0096 -2.72 -4.62 -16.59 7.21 -5.23 0.96 -2.01 15.88 7.49 -4.72 -3.05 -0.09 -9.78 5.05 -21.15 2.17 7.16 -24.52 4.89 1.26 0.01 -2.21 16.55 -3.04 0.00 0.00 0.00 4.52 -0.14 6.58 -13.48 -47.56 -67.19 -103.25 -75.70 -118.51 10.85 -2.56 0.41 5.84 0.29 -1.39 -40.94 -29.82 -48.66 10.52 -65.92 40.13 -35.10 4.12 0.76 6.70 11.55 -23.69 5.15 -15.17 -22.36 
45.2031 41.6104 -0.0593 -3.08 -4.27 -16.29 7.67 -5.90 0.58 -2.07 16.47 7.58 -4.75 -3.27 -0.10 -9.20 4.90 -21.60 2.05 6.96 -24.43 4.92 1.39 -0.00 -2.02 16.59 -2.92 0.00 0.00 0.00 4.62 -0.13 6.56 -12.31 -47.09 -64.83 -104.64 -75.89 -120.40 10.04 -2.75 0.39 5.61 0.27 -1.46 -40.34 -29.98 -48.09 10.37 -65.78 40.49 -35.10 4.13 0.76 6.97 11.38 -23.78 5.12 -15.13 -22.35 
45.3027 41.5760 -0.1020 -3.77 -3.68 -15.34 8.19 -7.27 -0.51 -1.98 17.82 7.72 -4.76 -3.81 -0.10 -8.41 4.82 -22.71 2.15 6.66 -24.36 4.98 1.65 -0.00 -1.65 16.61 -2.90 0.00 0.00 0.00 3.57 -0.12 5.80 -9.77 -47.43 -62.61 -107.25 -75.84 -123.26 9.49 -2.14 0.32 5.70 0.27 -1.52 -40.29 -29.25 -47.97 10.37 -65.71 40.09 -35.25 4.05 0.74 7.87 11.13 -24.09 4.72 -15.13 -22.28 
45.4977 41.5225 -0.0931 -4.39 -3.24 -14.40 8.30 -8.74 -1.68 -1.71 19.68 7.91 -4.78 -4.65 -0.11 -8.12 4.81 -23.64 2.57 6.57 -24.42 5.08 1.97 0.02 -1.46 16.60 -2.80 0.00 0.00 0.00 3.53 -0.12 5.80 -9.04 -47.98 -61.72 -104.60 -76.07 -120.04 9.48 -2.57 0.36 5.82 0.26 -1.59 -40.22 -28.43 -47.95 10.21 -65.79 39.56 -35.00 4.11 0.75 7.15 11.51 -23.78 5.69 -14.99 -22.33 
45.6117 41.5149 -0.0063 -4.66 -3.05 -13.90 8.36 -9.13 -2.10 -1.75 20.17 7.87 -4.60 -5.03 -0.12 -7.88 5.07 -24.01 2.47 6.02 -24.54 5.36 2.63 -0.02 -1.62 16.54 -2.39 0.00 0.00 0.00 2.62 -0.10 5.14 -5.78 -48.38 -58.65 -106.22 -76.04 -121.32 9.32 -2.30 0.33 5.47 0.23 -1.75 -39.59 -28.06 -47.74 10.12 -65.72 39.52 -34.61 3.99 0.71 6.81 13.12 -23.65 6.94 -15.99 -22.40 
45.8503 41.4829 0.1021 -5.04 -2.94 -13.13 8.24 -9.70 -2.92 -1.84 21.14 7.99 -4.25 -5.67 -0.12 -7.77 5.33 -25.01 2.22 5.83 -24.08 5.93 3.71 -0.12 -1.64 16.67 -2.46 0.00 0.00 0.00 2.41 -0.09 4.95 -1.56 -48.17 -54.60 -109.32 -75.69 -123.85 9.94 -2.56 0.37 4.24 0.16 -2.22 -37.41 -27.21 -46.74 11.89 -66.41 41.23 -34.68 4.07 0.73 8.09 12.67 -24.11 6.11 -15.82 -22.31 
46.2898 41.4324 0.3459 -5.76 -2.68 -11.96 8.00 -10.88 -4.38 -2.04 23.27 8.41 -3.66 -7.05 -0.16 -8.10 5.50 -26.12 1.96 5.64 -23.89 7.37 6.51 -0.40 -1.44 16.63 -2.41 0.00 0.00 0.00 2.53 -0.10 5.04 -0.06 -48.53 -52.71 -105.41 -76.18 -119.38 9.65 -2.95 0.40 3.94 0.13 -2.43 -37.02 -25.77 -46.35 12.15 -66.50 41.01 -34.63 3.82 0.65 9.36 12.04 -24.66 5.30 -15.41 -22.32 
46.7837 41.4782 0.5725 -6.36 -2.57 -10.96 7.71 -11.34 -5.36 -2.39 24.07 8.62 -2.77 -7.70 -0.17 -9.43 5.26 -26.47 2.20 6.43 -23.81 9.40 10.65 -0.91 -1.21 16.61 -2.24 0.00 0.00 0.00 1.59 -0.06 4.39 2.65 -49.05 -49.98 -99.42 -76.67 -113.29 9.32 -3.00 0.39 4.19 0.12 -2.51 -37.17 -24.17 -46.01 12.90 -67.12 41.55 -34.41 3.66 0.60 10.29 13.51 -25.17 5.53 -16.52 -22.45 
